<svg width="512" height="512" viewBox="0 0 512 512" fill="none" xmlns="http://www.w3.org/2000/svg">
  <path d="M256 64C141.1 64 48 157.1 48 272c0 114.9 93.1 208 208 208s208-93.1 208-208C464 157.1 370.9 64 256 64zm134.6 176c-12.9-10.1-28.8-16-46-16-32.4 0-58.7 26.3-58.7 58.7 0 12.9 4 25.2 10.5 35.6 8.8 14.2 24.5 23.3 41.9 23.3 26.7 0 48.4-21.7 48.4-48.4 0-20.6-13.9-38.1-32.1-45.2zM256 384c-16.5 0-30-13.5-30-30s13.5-30 30-30 30 13.5 30 30-13.5 30-30 30zm-112-32c-17.7 0-32-14.3-32-32s14.3-32 32-32 32 14.3 32 32-14.3 32-32 32z" fill="url(#paint0_linear)"/>
  <defs>
    <linearGradient id="paint0_linear" x1="128" y1="256" x2="384" y2="256" gradientUnits="userSpaceOnUse">
      <stop stop-color="#6366F1"/>
      <stop offset="1" stop-color="#A855F7"/>
    </linearGradient>
  </defs>
</svg>